<svg xmlns="http://www.w3.org/2000/svg" xmlns:xlink="http://www.w3.org/1999/xlink" width="1500" height="1500" viewBox="0 0 1500 1500">
  <defs>
    <clipPath id="clip-undraw_modern_design_v-3-wv">
      <rect width="1500" height="1500"/>
    </clipPath>
  </defs>
  <g id="undraw_modern_design_v-3-wv" clip-path="url(#clip-undraw_modern_design_v-3-wv)">
    <rect width="1500" height="1500" fill="#fff"/>
    <path id="Path_9179" data-name="Path 9179" d="M725.3,1166.628c286.251,0,518.3-11.868,518.3-26.5s-232.052-26.5-518.3-26.5-518.3,11.868-518.3,26.5S439.053,1166.628,725.3,1166.628Z" transform="translate(-141 129.372)" fill="#ececec"/>
    <path id="Path_9180" data-name="Path 9180" d="M863.61,868.6v6.414s11.547,41.056-2.566,41.056S841.8,876.3,841.8,876.3v-7.7Z" transform="translate(158.912 13.613)" fill="#dbae81"/>
    <path id="Path_9181" data-name="Path 9181" d="M682.346,781.07l2.565-10.264s14.113-32.074,25.66-25.661-5.131,30.792-5.131,30.792l-2.567,6.416Z" transform="translate(83.578 -45.116)" fill="#dbae81"/>
    <path id="Path_9182" data-name="Path 9182" d="M738.111,1082.037l2.566,21.807,24.376,3.843V1079.46Z" transform="translate(109.925 113.233)" fill="#dbae81"/>
    <path id="Path_9183" data-name="Path 9183" d="M829.6,1077.672l2.565,32.07,28.227-3.843-5.133-30.789Z" transform="translate(153.149 111.178)" fill="#dbae81"/>
    <path id="Path_9184" data-name="Path 9184" d="M731.916,917.061l-5.131,1.283,14.112,136v121.89l35.923-6.42,17.962-214.259,55.168,105.21,26.943,106.488,42.339-7.7-34.641-133.432L861.5,899.1Z" transform="translate(104.573 28.021)" fill="#524611"/>
    <path id="Path_9185" data-name="Path 9185" d="M765.078,1092.179s-11.547-7.7-15.4-2.562-20.529,30.789-20.529,30.789-41.055,42.348,0,41.052c0,0,26.943,0,32.076-15.387,0,0,1.282-7.7,10.263-7.7s19.245-8.982,19.245-14.106-8.98-31.054-12.829-27.078S765.078,1092.179,765.078,1092.179Z" transform="translate(97.071 117.197)" fill="#551f11"/>
    <path id="Path_9186" data-name="Path 9186" d="M849.475,1092.179s11.547-7.7,15.4-2.562,20.527,30.789,20.527,30.789,41.056,42.348,0,41.052c0,0-26.943,0-32.074-15.387,0,0-1.283-7.7-10.265-7.7s-19.245-8.982-19.245-14.106,8.982-31.054,12.831-27.078S849.475,1092.179,849.475,1092.179Z" transform="translate(150.416 117.197)" fill="#551f11"/>
    <path id="Path_9187" data-name="Path 9187" d="M743.313,786.557a33.866,33.866,0,1,0-33.866-33.866A33.866,33.866,0,0,0,743.313,786.557Z" transform="translate(96.382 -57.151)" fill="#dbae81"/>
    <path id="Path_9188" data-name="Path 9188" d="M730.7,767.532l17.961,21.81L780.74,762.4l-23.093-17.961Z" transform="translate(106.426 -45.049)" fill="#dbae81"/>
    <path id="Path_9189" data-name="Path 9189" d="M748.767,786.563l1.048-9.494,36.016-20.694,48.93-4.643a11.557,11.557,0,0,1,12.6,10.421l18.16,192.483,6.414,16.678s-112.9,64.15-138.562,16.678l19.245-100.074-39.774-75.7Z" transform="translate(97.986 -41.628)" fill="#94a8bd"/>
    <path id="Path_9190" data-name="Path 9190" d="M796.49,754.016a10.521,10.521,0,0,0,2.285-.652,11.6,11.6,0,0,1,13.273,4.042l57.573,78.722,21.811,91.092H860.64l-20.529-61.582-33.357-43.623Z" transform="translate(137.506 -41.156)" fill="#94a8bd"/>
    <path id="Path_9191" data-name="Path 9191" d="M744.307,802.992l-10.265,2.567L703.25,832.5l10.264-61.584-25.66-5.133L667.969,869.067l14.112,14.112,80.188-32.716Z" transform="translate(76.786 -34.964)" fill="#94a8bd"/>
    <path id="Path_9192" data-name="Path 9192" d="M760.095,755.526s-13.91-20.427-21.873-13.7-30.284,19.919-34.987,9.477,13.373-29.577,27.015-34.151,37.6-10.652,45.112,9.516a88.2,88.2,0,0,1,4.41,39.94Z" transform="translate(93.087 -60.098)" fill="#551f11"/>
    <path id="Path_9193" data-name="Path 9193" d="M744.614,748.453c1.911-.693,2.446-4.045,1.2-7.484S742,735.3,740.086,736s-2.446,4.045-1.2,7.484S742.7,749.148,744.614,748.453Z" transform="translate(109.974 -49.096)" fill="#daac81"/>
    <path id="Path_9194" data-name="Path 9194" d="M806.448,662.656h-5.888v-161.3A93.355,93.355,0,0,0,707.2,408H365.467a93.355,93.355,0,0,0-93.356,93.356v884.911a93.373,93.373,0,0,0,93.356,93.354H707.2a93.357,93.357,0,0,0,93.356-93.354v-608.8h5.888Z" transform="translate(-110.238 -204)" fill="#e2c7b6"/>
    <path id="Path_9195" data-name="Path 9195" d="M702.7,424.495H658.1a33.121,33.121,0,0,1-30.667,45.631H431.654a33.121,33.121,0,0,1-30.667-45.631H359.323A69.716,69.716,0,0,0,289.6,494.213v883.614a69.7,69.7,0,0,0,69.718,69.706H702.7a69.72,69.72,0,0,0,69.718-69.706V494.213A69.716,69.716,0,0,0,702.7,424.495Z" transform="translate(-101.973 -196.207)" fill="#fff"/>
    <path id="Path_9196" data-name="Path 9196" d="M525.029,585.7H403.318v11.3H525.029Z" transform="translate(-48.249 -120.043)" fill="#eedacc"/>
    <path id="Path_9197" data-name="Path 9197" d="M615.453,612.259H403.318v11.3H615.453Z" transform="translate(-48.249 -107.497)" fill="#ff8e28"/>
    <path id="Path_9198" data-name="Path 9198" d="M615.245,638.813H403.318v11.3H615.245Z" transform="translate(-48.249 -94.952)" fill="#ff8e28"/>
    <path id="Path_9199" data-name="Path 9199" d="M415.2,585.818H324.778v90.423H415.2Z" transform="translate(-85.356 -119.989)" fill="#eedacc"/>
    <path id="Path_9200" data-name="Path 9200" d="M525.029,746.9H403.318v11.3H525.029Z" transform="translate(-48.249 -43.884)" fill="#eedacc"/>
    <path id="Path_9201" data-name="Path 9201" d="M615.453,773.458H403.318v11.3H615.453Z" transform="translate(-48.249 -31.339)" fill="#ff8e28"/>
    <path id="Path_9202" data-name="Path 9202" d="M615.245,800.012H403.318v11.3H615.245Z" transform="translate(-48.249 -18.793)" fill="#ff8e28"/>
    <path id="Path_9203" data-name="Path 9203" d="M415.2,747.018H324.778V837.44H415.2Z" transform="translate(-85.356 -43.83)" fill="#eedacc"/>
    <path id="Path_9204" data-name="Path 9204" d="M525.029,908.1H403.318v11.3H525.029Z" transform="translate(-48.249 32.275)" fill="#eedacc"/>
    <path id="Path_9205" data-name="Path 9205" d="M615.453,934.657H403.318v11.3H615.453Z" transform="translate(-48.249 44.82)" fill="#ff8e28"/>
    <path id="Path_9206" data-name="Path 9206" d="M615.245,961.212H403.318v11.3H615.245Z" transform="translate(-48.249 57.366)" fill="#ff8e28"/>
    <path id="Path_9207" data-name="Path 9207" d="M415.2,908.217H324.778V998.64H415.2Z" transform="translate(-85.356 32.329)" fill="#eedacc"/>
    <path id="Path_9231" data-name="Path 9231" d="M814.482,715.75h-9V188.25a4.5,4.5,0,0,1,9,0Z" transform="translate(398.306 543.878)" fill="#e8cfbe"/>
    <path id="Path_9232" data-name="Path 9232" d="M879.694,716.25h-140a1,1,0,0,1,0-2h140a1,1,0,0,1,0,2Z" transform="translate(398.306 543.878)" fill="#e8cfbe"/>
    <path id="Path_9233" data-name="Path 9233" d="M876.932,252.75H745.982a4.505,4.505,0,0,1-4.5-4.5v-38a4.505,4.505,0,0,1,4.5-4.5h130.96a4.51,4.51,0,0,1,2.193.571L913,225.22a4.5,4.5,0,0,1,.017,7.849l-33.874,19.1A4.513,4.513,0,0,1,876.932,252.75Z" transform="translate(398.306 543.878)" fill="#d28022"/>
    <path id="Path_9234" data-name="Path 9234" d="M864.982,334.75H734.032a4.511,4.511,0,0,1-2.21-.58l-33.874-19.1a4.5,4.5,0,0,1,.017-7.849l33.865-18.9a4.509,4.509,0,0,1,2.193-.571h130.96a4.505,4.505,0,0,1,4.5,4.5v38a4.505,4.505,0,0,1-4.5,4.5Z" transform="translate(398.306 543.878)" fill="#f8eee7"/>
    <path id="Path_9235" data-name="Path 9235" d="M865.482,415.25H734.532a4.511,4.511,0,0,1-2.21-.58l-33.875-19.1a4.5,4.5,0,0,1,.017-7.849l33.865-18.9a4.509,4.509,0,0,1,2.193-.571h130.96a4.505,4.505,0,0,1,4.5,4.5v38a4.505,4.505,0,0,1-4.5,4.5Z" transform="translate(398.306 543.878)" fill="#f8eee7"/>
    <circle id="Ellipse_1305" data-name="Ellipse 1305" cx="3.5" cy="3.5" r="3.5" transform="translate(825 696)" fill="#551f11"/>
    <circle id="Ellipse_1306" data-name="Ellipse 1306" cx="3.5" cy="3.5" r="3.5" transform="translate(807 703)" fill="#551f11"/>
  </g>
</svg>
